<?xml version="1.0" ?><!DOCTYPE svg  PUBLIC '-//W3C//DTD SVG 1.1//EN'  'http://www.w3.org/Graphics/SVG/1.1/DTD/svg11.dtd'><svg height="135px" id="Layer_1" style="enable-background:new 0 0 135 135;" version="1.1" viewBox="0 0 135 135" width="135px" xml:space="preserve" xmlns="http://www.w3.org/2000/svg" xmlns:xlink="http://www.w3.org/1999/xlink"><style type="text/css">
<![CDATA[
	.st0{fill:#465652;}
	.st1{fill:#AAB9BA;}
	.st2{fill:#47C67B;}
	.st3{fill:#AAC8D1;}
	.st4{fill:none;stroke:#E83834;stroke-width:6;stroke-linecap:round;stroke-linejoin:round;stroke-miterlimit:10;}
	.st5{fill:#7BC67B;}
	.st6{fill:#7BC7FF;}
	.st7{fill:#7C34C1;}
	.st8{fill:#7C8D96;}
	.st9{fill:#AD2707;}
	.st10{fill:#ADB8BC;}
	.st11{fill:#107510;}
	.st12{fill:#7FE5D8;}
	.st13{fill:#AF4AD1;}
	.st14{fill:#E02B7E;}
	.st15{fill:#E04038;}
	.st16{fill:#AFD7DD;}
	.st17{fill:#E0A010;}
	.st18{fill:#E0D5A4;}
	.st19{fill:#12B2B2;}
	.st20{fill:#12D66B;}
	.st21{fill:#E1A9FF;}
	.st22{fill:#1362A8;}
	.st23{fill:#E2378D;}
	.st24{fill:#E29C37;}
	.st25{fill:#E2B90E;}
	.st26{fill:#E2BF91;}
	.st27{fill:#E2CBAA;}
	.st28{fill:#14A594;}
	.st29{fill:#E4E9ED;}
	.st30{fill:#4A5D60;}
	.st31{fill:#E5B076;}
	.st32{fill:#E5B1C4;}
	.st33{fill:#E5E4C3;}
	.st34{fill:#4B6466;}
	.st35{fill:#E6FF2E;}
	.st36{fill:#18AA67;}
	.st37{fill:#E86207;}
	.st38{fill:#E8A113;}
	.st39{fill:#E8B5A6;}
	.st40{fill:#E8E8ED;}
	.st41{fill:#4E5154;}
	.st42{fill:#E9F1F4;}
	.st43{fill:#4F4B48;}
	.st44{fill:#4F74E8;}
	.st45{fill:#808E93;}
	.st46{fill:#80949B;}
	.st47{fill:#80EDAC;}
	.st48{fill:#B122E0;}
	.st49{fill:#B2C4CC;}
	.st50{fill:#83D839;}
	.st51{fill:#B3C6C6;}
	.st52{fill:none;stroke:#33363A;stroke-width:3;stroke-linecap:round;stroke-linejoin:round;stroke-miterlimit:10;}
	.st53{fill:#1A8E1C;}
	.st54{fill:#1A93D6;}
	.st55{fill:#B50B0B;}
	.st56{fill:#1AD88F;}
	.st57{fill:#B5DAF4;}
	.st58{fill:#EA7B1F;}
	.st59{fill:#EA81BD;}
	.st60{fill:#87B8D6;}
	.st61{fill:#87C3F4;}
	.st62{fill:#EAC79D;}
	.st63{fill:#EADF11;}
	.st64{fill:#EAE4C5;}
	.st65{fill:#B78094;}
	.st66{fill:#8844D8;}
	.st67{fill:#EBF4F7;}
	.st68{fill:#893015;}
	.st69{fill:#89410B;}
	.st70{fill:#899BA3;}
	.st71{fill:#EDE3B9;}
	.st72{enable-background:new    ;}
	.st73{fill:#50FF9F;}
	.st74{fill:#EEDCF4;}
	.st75{fill:#EFA37D;}
	.st76{fill:#EFA3CC;}
	.st77{fill:#EFC99A;}
	.st78{fill:#54AF79;}
	.st79{fill:#BA503A;}
	.st80{fill:#BA8663;}
	.st81{fill:#8B4FE0;}
	.st82{fill:#58ED9B;}
	.st83{fill:#BC7DFF;}
	.st84{fill:#8D9AA3;}
	.st85{fill:#BCCAD3;}
	.st86{fill:#8DE4FF;}
	.st87{fill:#20B518;}
	.st88{fill:#BF44F2;}
	.st89{fill:#21CEA1;}
	.st90{fill:#BFDAE0;}
	.st91{fill:#F0FBFC;}
	.st92{fill:#F2D9A7;}
	.st93{fill:#F2EAC9;}
	.st94{fill:#24D1AF;}
	.st95{fill:#25931C;}
	.st96{fill:#F4C4B3;}
	.st97{fill:#F4D3A2;}
	.st98{fill:#F4D647;}
	.st99{fill:#F4D7B8;}
	.st100{fill:#F4EC8E;}
	.st101{fill:#5B524D;}
	.st102{fill:#F77819;}
	.st103{fill:#F79AE1;}
	.st104{fill:#5E707A;}
	.st105{fill:#F93585;}
	.st106{fill:#F95D5D;}
	.st107{fill:#F9C19B;}
	.st108{fill:#F9CB58;}
	.st109{fill:#F9D2B2;}
	.st110{fill:#F9F07D;}
	.st111{fill:#F9F1D2;}
	.st112{fill:#F9F4B7;}
	.st113{fill:#F9F9E4;}
	.st114{fill:#5F1DAA;}
	.st115{fill:#5F9AD6;}
	.st116{fill:#C0C0C4;}
	.st117{fill:#91EA57;}
	.st118{fill:#C12727;}
	.st119{fill:#C191A0;}
	.st120{fill:#923BB7;}
	.st121{fill:#93A0A3;}
	.st122{fill:#93F9EA;}
	.st123{fill:#93FF5A;}
	.st124{fill:#C4833D;}
	.st125{fill:#95A2A5;}
	.st126{fill:#965514;}
	.st127{fill:#96562C;}
	.st128{fill:#2AF42F;}
	.st129{fill:#C5D7DD;}
	.st130{fill:#C68510;}
	.st131{fill:#C6A86D;}
	.st132{fill:#C6BB8D;}
	.st133{fill:#2C9DCE;}
	.st134{fill:#FBFCF2;}
	.st135{fill:#FC70B0;}
	.st136{fill:#FCE6C8;}
	.st137{fill:#FCF7E3;}
	.st138{fill:#C90D6B;}
	.st139{fill:#FDFEFF;}
	.st140{fill:#FDFFDC;}
	.st141{fill:#FF1A1A;}
	.st142{fill:#FF5252;}
	.st143{fill:#FF5B00;}
	.st144{fill:#FF6155;}
	.st145{fill:#FF630D;}
	.st146{fill:#FF6666;}
	.st147{fill:#FF7676;}
	.st148{fill:#FF7900;}
	.st149{fill:#FF860D;}
	.st150{fill:#FF8B00;}
	.st151{fill:#FF8F8F;}
	.st152{fill:#FF900B;}
	.st153{fill:#FF908A;}
	.st154{fill:#FF960B;}
	.st155{fill:#FF9C0D;}
	.st156{fill:#FFA9D4;}
	.st157{fill:#FFAA00;}
	.st158{fill:#FFAD40;}
	.st159{fill:#FFAF10;}
	.st160{fill:#FFB000;}
	.st161{fill:#FFBE08;}
	.st162{fill:#FFBF31;}
	.st163{fill:#FFC200;}
	.st164{fill:#FFCAE8;}
	.st165{fill:#FFCCF5;}
	.st166{fill:#FFD00B;}
	.st167{fill:#FFD039;}
	.st168{fill:#FFD400;}
	.st169{fill:#FFD833;}
	.st170{fill:#FFDB80;}
	.st171{fill:#FFDDD2;}
	.st172{fill:#FFE6D4;}
	.st173{fill:#FFE6EB;}
	.st174{fill:#FFE98D;}
	.st175{fill:#FFECD2;}
	.st176{fill:#FFF1D9;}
	.st177{fill:#FFF24D;}
	.st178{fill:#FFF3C2;}
	.st179{fill:#FFF4C7;}
	.st180{fill:#FFF800;}
	.st181{fill:#FFF80D;}
	.st182{fill:#FFF9DE;}
	.st183{fill:#FFFBD7;}
	.st184{fill:#FFFBEB;}
	.st185{fill:#FFFCC0;}
	.st186{fill:#FFFCDC;}
	.st187{fill:#FFFFFA;}
	.st188{fill:#FFFFFF;}
	.st189{fill:#63797F;}
	.st190{fill:#65E529;}
	.st191{fill:#66310E;}
	.st192{fill:#663C17;}
	.st193{fill:#9A5AE5;}
	.st194{fill:#CA30EF;}
	.st195{fill:#6892FC;}
	.st196{fill:#9CFFC4;}
	.st197{fill:#CC4306;}
	.st198{fill:#CC549E;}
	.st199{fill:#9E3256;}
	.st200{fill:#CDFFBB;}
	.st201{fill:#CE86AF;}
	.st202{fill:#CED9DD;}
	
		.st203{fill:none;stroke:#33363A;stroke-width:3;stroke-linecap:round;stroke-linejoin:round;stroke-miterlimit:10;stroke-dasharray:6;}
	.st204{fill:#CFE1E2;}
	.st205{fill:#33363A;}
	.st206{fill:#34C166;}
	.st207{fill:#364B5B;}
	.st208{fill:#3662CE;}
	.st209{fill:#36C6FF;}
	.st210{fill:#6ADB9A;}
	.st211{fill:#6D5C4D;}
	.st212{fill:#6EBDF9;}
	.st213{fill:#0031FF;}
	.st214{fill:#0062FF;}
	.st215{fill:#0068FF;}
	.st216{fill:#0086FF;}
	.st217{fill:#009BE8;}
	.st218{fill:#00AAFF;}
	.st219{fill:#D271FF;}
	.st220{fill:#D363A9;}
	.st221{fill:#D3964C;}
	.st222{fill:#D3DFE2;}
	.st223{fill:#D3E0E2;}
	.st224{fill:#D3EFF4;}
	.st225{fill:#063B66;}
	.st226{fill:#D60909;}
	.st227{fill:#D61D1D;}
	.st228{fill:#D7F0FF;}
	.st229{fill:#09B285;}
	.st230{fill:#D8D593;}
	.st231{fill:#D8E2EA;}
	.st232{fill:#D8E5EA;}
	.st233{fill:#3E5054;}
	.st234{fill:#D988FF;}
	.st235{fill:#D9E7E8;}
	.st236{fill:#702252;}
	.st237{fill:#70D3E0;}
	.st238{fill:#A02FF2;}
	.st239{fill:#A2F255;}
	.st240{fill:#A35616;}
	.st241{fill:#A3CCCC;}
	.st242{fill:#0A6ADD;}
	.st243{fill:#A5145D;}
	.st244{fill:#A57555;}
	.st245{fill:#77D6FC;}
	.st246{fill:#7815CE;}
	.st247{fill:#A7BBC1;}
	.st248{fill:#DBD279;}
	.st249{fill:#0D5C9E;}
	.st250{fill:#A83C11;}
	.st251{fill:#A8633D;}
	.st252{fill:#A8A3E5;}
	.st253{fill:#DCE6EA;}
	.st254{fill:#DCE7EA;}
	.st255{fill:#A962E8;}
	.st256{fill:#DD2466;}
	.st257{fill:#DDC38A;}
	.st258{fill:#DDD2B1;}
	.st259{fill:#DFE7E8;}
	.st260{fill:#42B1E8;}
	.st261{fill:#436377;}
	.st262{fill:#43B530;}
]]>
</style><g><g><g><circle class="st166" cx="67.5" cy="67.499" r="61.977"/></g><g><path class="st161" d="M67.5,5.523v123.953c34.229,0,61.977-27.748,61.977-61.978C129.477,33.271,101.729,5.523,67.5,5.523z"/></g><g><path class="st205" d="M67.5,130.977c-35.001,0-63.477-28.476-63.477-63.478c0-35,28.476-63.476,63.477-63.476     s63.477,28.475,63.477,63.476C130.977,102.5,102.501,130.977,67.5,130.977z M67.5,7.023c-33.347,0-60.477,27.129-60.477,60.476     c0,33.348,27.13,60.478,60.477,60.478s60.477-27.13,60.477-60.478C127.977,34.153,100.847,7.023,67.5,7.023z"/></g></g><g><g><circle class="st166" cx="67.5" cy="67.5" r="47.978"/></g><g><path class="st161" d="M33.576,33.575l67.85,67.851c18.736-18.736,18.736-49.114,0-67.852     C82.689,14.839,52.312,14.838,33.576,33.575z"/></g><g><path class="st205" d="M67.501,116.978c-13.216,0-25.642-5.146-34.987-14.492c-19.29-19.292-19.289-50.681,0.002-69.972     c9.345-9.346,21.77-14.492,34.985-14.492s25.641,5.146,34.985,14.491c19.291,19.292,19.291,50.682,0,69.973     C93.142,111.832,80.717,116.978,67.501,116.978z M67.501,21.022c-12.414,0-24.086,4.834-32.864,13.613     c-18.121,18.121-18.122,47.607-0.002,65.729c8.779,8.778,20.451,13.613,32.866,13.613c12.414,0,24.086-4.834,32.864-13.613     c18.121-18.122,18.121-47.608,0-65.73C91.587,25.857,79.915,21.022,67.501,21.022z"/></g></g><g><g><g><path class="st205" d="M67.5,15.805c-0.828,0-1.5-0.671-1.5-1.5v-3.522c0-0.829,0.672-1.5,1.5-1.5s1.5,0.671,1.5,1.5v3.522      C69,15.133,68.328,15.805,67.5,15.805z"/></g><g><path class="st205" d="M67.5,125.719c-0.828,0-1.5-0.671-1.5-1.5v-3.522c0-0.829,0.672-1.5,1.5-1.5s1.5,0.671,1.5,1.5v3.522      C69,125.047,68.328,125.719,67.5,125.719z"/></g></g><g><g><path class="st205" d="M105.115,31.385c-0.384,0-0.768-0.146-1.061-0.439c-0.586-0.585-0.586-1.536,0-2.121l2.49-2.49      c0.586-0.586,1.535-0.586,2.121,0c0.586,0.585,0.586,1.536,0,2.121l-2.49,2.49C105.883,31.238,105.499,31.385,105.115,31.385z"/></g><g><path class="st205" d="M27.395,109.105c-0.384,0-0.768-0.146-1.061-0.439c-0.586-0.585-0.586-1.536,0-2.121l2.49-2.49      c0.586-0.586,1.535-0.586,2.121,0c0.586,0.585,0.586,1.536,0,2.121l-2.49,2.49C28.162,108.959,27.778,109.105,27.395,109.105z"/></g></g><g><g><path class="st205" d="M124.219,69h-3.523c-0.828,0-1.5-0.671-1.5-1.5s0.672-1.5,1.5-1.5h3.523c0.828,0,1.5,0.671,1.5,1.5      S125.047,69,124.219,69z"/></g><g><path class="st205" d="M14.305,69h-3.523c-0.828,0-1.5-0.671-1.5-1.5s0.672-1.5,1.5-1.5h3.523c0.828,0,1.5,0.671,1.5,1.5      S15.133,69,14.305,69z"/></g></g><g><g><path class="st205" d="M107.605,109.105c-0.384,0-0.768-0.146-1.061-0.439l-2.49-2.49c-0.586-0.585-0.586-1.536,0-2.121      c0.586-0.586,1.535-0.586,2.121,0l2.49,2.49c0.586,0.585,0.586,1.536,0,2.121C108.373,108.959,107.989,109.105,107.605,109.105z      "/></g><g><path class="st205" d="M29.885,31.385c-0.384,0-0.768-0.146-1.061-0.439l-2.49-2.49c-0.586-0.585-0.586-1.536,0-2.121      c0.586-0.586,1.535-0.586,2.121,0l2.49,2.49c0.586,0.585,0.586,1.536,0,2.121C30.652,31.238,30.269,31.385,29.885,31.385z"/></g></g></g><g><g><g><path class="st205" d="M40.903,22.932c-0.518,0-1.022-0.269-1.3-0.75l-1.762-3.051c-0.414-0.717-0.169-1.635,0.549-2.049      c0.716-0.414,1.636-0.169,2.049,0.549l1.762,3.051c0.414,0.717,0.169,1.635-0.549,2.049      C41.416,22.867,41.158,22.932,40.903,22.932z"/></g><g><path class="st205" d="M95.86,118.12c-0.519,0-1.022-0.27-1.301-0.751l-1.76-3.051c-0.413-0.718-0.167-1.635,0.551-2.049      c0.713-0.414,1.633-0.169,2.049,0.55l1.76,3.051c0.413,0.718,0.167,1.635-0.551,2.049      C96.373,118.055,96.115,118.12,95.86,118.12z"/></g></g><g><g><path class="st205" d="M81.271,17.618c-0.128,0-0.259-0.017-0.389-0.051c-0.8-0.214-1.275-1.037-1.062-1.837l0.91-3.402      c0.214-0.8,1.035-1.277,1.837-1.062c0.8,0.214,1.275,1.037,1.062,1.837l-0.91,3.402C82.539,17.175,81.933,17.618,81.271,17.618z      "/></g><g><path class="st205" d="M52.823,123.786c-0.128,0-0.259-0.017-0.389-0.051c-0.8-0.214-1.275-1.037-1.062-1.837l0.91-3.402      c0.214-0.8,1.035-1.276,1.837-1.062c0.8,0.214,1.275,1.037,1.062,1.837l-0.91,3.402      C54.092,123.343,53.485,123.786,52.823,123.786z"/></g></g><g><g><path class="st205" d="M113.569,42.403c-0.518,0-1.022-0.269-1.3-0.75c-0.414-0.717-0.169-1.635,0.549-2.049l3.051-1.762      c0.716-0.415,1.635-0.17,2.049,0.549c0.414,0.717,0.169,1.635-0.549,2.049l-3.051,1.762      C114.082,42.338,113.824,42.403,113.569,42.403z"/></g><g><path class="st205" d="M18.382,97.36c-0.519,0-1.022-0.27-1.3-0.75c-0.414-0.718-0.169-1.635,0.549-2.049l3.051-1.761      c0.716-0.414,1.635-0.168,2.049,0.549s0.169,1.635-0.549,2.049l-3.051,1.761C18.895,97.295,18.637,97.36,18.382,97.36z"/></g></g><g><g><path class="st205" d="M122.286,83.68c-0.129,0-0.26-0.017-0.39-0.052l-3.402-0.912c-0.8-0.214-1.274-1.037-1.061-1.837      c0.215-0.801,1.044-1.275,1.838-1.061l3.402,0.912c0.8,0.214,1.274,1.037,1.061,1.837      C123.555,83.238,122.948,83.68,122.286,83.68z"/></g><g><path class="st205" d="M16.118,55.232c-0.129,0-0.259-0.017-0.389-0.052l-3.402-0.911c-0.801-0.214-1.275-1.037-1.062-1.837      c0.215-0.8,1.042-1.274,1.837-1.061l3.402,0.911c0.801,0.214,1.275,1.037,1.062,1.837C17.387,54.79,16.78,55.232,16.118,55.232z      "/></g></g></g><g><g><g><path class="st205" d="M21.431,42.403c-0.255,0-0.513-0.065-0.749-0.202l-3.051-1.762c-0.718-0.414-0.963-1.332-0.549-2.049      c0.414-0.719,1.333-0.964,2.049-0.549l3.051,1.762c0.718,0.414,0.963,1.332,0.549,2.049      C22.453,42.134,21.948,42.403,21.431,42.403z"/></g><g><path class="st205" d="M116.618,97.36c-0.255,0-0.513-0.065-0.749-0.202l-3.049-1.762c-0.718-0.415-0.963-1.332-0.549-2.049      c0.415-0.718,1.332-0.963,2.049-0.548l3.049,1.762c0.718,0.415,0.963,1.332,0.549,2.049      C117.64,97.091,117.136,97.36,116.618,97.36z"/></g></g><g><g><path class="st205" d="M53.731,17.618c-0.662,0-1.269-0.442-1.448-1.112l-0.912-3.401c-0.214-0.8,0.261-1.623,1.061-1.837      c0.798-0.215,1.623,0.26,1.838,1.06l0.912,3.401c0.214,0.8-0.261,1.623-1.061,1.837C53.991,17.601,53.86,17.618,53.731,17.618z"/></g><g><path class="st205" d="M82.181,123.786c-0.662,0-1.269-0.442-1.448-1.112l-0.912-3.402c-0.214-0.8,0.261-1.623,1.061-1.837      c0.799-0.215,1.623,0.26,1.838,1.061l0.912,3.402c0.214,0.8-0.261,1.623-1.061,1.837      C82.44,123.769,82.31,123.786,82.181,123.786z"/></g></g><g><g><path class="st205" d="M94.097,22.931c-0.255,0-0.513-0.065-0.749-0.202c-0.718-0.415-0.963-1.332-0.549-2.049l1.762-3.05      c0.415-0.718,1.333-0.962,2.049-0.548c0.718,0.415,0.963,1.332,0.549,2.049l-1.762,3.05      C95.118,22.662,94.614,22.931,94.097,22.931z"/></g><g><path class="st205" d="M39.14,118.12c-0.255,0-0.513-0.065-0.749-0.202c-0.718-0.415-0.963-1.332-0.549-2.049l1.762-3.049      c0.415-0.718,1.332-0.963,2.049-0.548c0.718,0.415,0.963,1.332,0.549,2.049l-1.762,3.049      C40.161,117.851,39.657,118.12,39.14,118.12z"/></g></g><g><g><path class="st205" d="M118.882,55.232c-0.662,0-1.269-0.442-1.448-1.112c-0.214-0.8,0.261-1.623,1.062-1.837l3.402-0.911      c0.798-0.214,1.622,0.261,1.837,1.061c0.214,0.8-0.261,1.623-1.062,1.837l-3.402,0.911      C119.141,55.215,119.011,55.232,118.882,55.232z"/></g><g><path class="st205" d="M12.714,83.681c-0.662,0-1.268-0.442-1.448-1.112c-0.214-0.8,0.261-1.623,1.061-1.837l3.402-0.913      c0.797-0.215,1.622,0.26,1.838,1.06c0.214,0.8-0.261,1.623-1.061,1.837l-3.402,0.913C12.974,83.665,12.843,83.681,12.714,83.681      z"/></g></g></g><g><path class="st205" d="M91.282,110.363c-0.323,0-0.648-0.104-0.922-0.318c-0.653-0.51-0.77-1.452-0.26-2.105    c9.343-11.964,11.797-23.38,7.096-33.015C91.959,64.191,79.245,58.474,72.08,58.474c-2.651,0-5.474,0.176-8.143,1.455    c-0.374,0.179-0.802,0.196-1.188,0.047c-0.385-0.148-0.692-0.45-0.849-0.832c-1.533-3.752-3.742-7.087-6.566-9.911    c-4.427-4.428-10.162-7.375-16.318-8.416c1.042,6.156,3.988,11.892,8.416,16.318c2.443,2.446,5.266,4.438,8.392,5.921    c0.442,0.21,0.755,0.624,0.836,1.107c0.081,0.483-0.08,0.977-0.431,1.319c-3.98,3.897-7.151,8.844-11.167,15.106    c-3.525,5.499-7.521,11.732-13.067,18.763c-0.513,0.65-1.456,0.762-2.106,0.249c-0.65-0.513-0.762-1.456-0.249-2.107    c5.455-6.915,9.409-13.083,12.897-18.523c3.497-5.455,6.573-10.252,10.159-14.149c-2.711-1.499-5.188-3.365-7.386-5.565    c-5.366-5.365-8.754-12.481-9.538-20.036c-0.047-0.449,0.112-0.896,0.432-1.215c0.318-0.32,0.766-0.48,1.215-0.432    c7.556,0.784,14.672,4.171,20.037,9.539c2.755,2.754,4.977,5.948,6.619,9.51c2.731-0.994,5.447-1.147,8.006-1.147    c9.12,0,22.348,6.934,27.812,18.136c3.653,7.487,5.329,19.841-7.427,36.177C92.17,110.165,91.729,110.363,91.282,110.363z"/></g><g><path class="st205" d="M50.879,70.581c-0.052,0-0.104-0.002-0.155-0.008c-6.161-0.64-11.964-3.403-16.339-7.78    c-4.378-4.377-7.141-10.18-7.779-16.34c-0.047-0.45,0.112-0.896,0.432-1.216c0.32-0.319,0.768-0.477,1.216-0.431    c5.163,0.537,10.04,2.542,14.104,5.799c0.143,0.115,0.264,0.255,0.356,0.414c1.308,2.236,2.895,4.294,4.719,6.116    c0.485,0.488,1.003,0.943,1.535,1.406c0.138,0.12,0.252,0.264,0.339,0.425c1.675,3.133,2.706,6.485,3.065,9.962    c0.046,0.449-0.112,0.896-0.432,1.215C51.656,70.424,51.274,70.581,50.879,70.581z M29.869,48.069    c0.889,4.752,3.204,9.17,6.637,12.603c3.431,3.432,7.849,5.748,12.602,6.638c-0.433-2.315-1.21-4.558-2.321-6.69    c-0.501-0.438-0.992-0.878-1.478-1.365c-1.937-1.934-3.632-4.112-5.041-6.476C37.212,50.383,33.653,48.775,29.869,48.069z"/></g><g><path class="st205" d="M87.58,76.441c-0.828,0-1.5-0.671-1.5-1.5c0-0.25-0.202-0.453-0.451-0.453s-0.451,0.203-0.451,0.453    c0,0.829-0.672,1.5-1.5,1.5s-1.5-0.671-1.5-1.5c0-1.904,1.548-3.453,3.451-3.453s3.451,1.549,3.451,3.453    C89.08,75.77,88.408,76.441,87.58,76.441z"/></g><g><circle class="st15" cx="83.377" cy="85.716" r="5.238"/></g><g><path class="st144" d="M83.377,80.479c2.893,0,5.238,2.345,5.238,5.237c0,2.894-2.346,5.239-5.238,5.239"/></g><g><path class="st205" d="M83.377,92.455c-3.716,0-6.738-3.023-6.738-6.739c0-3.715,3.022-6.737,6.738-6.737s6.738,3.022,6.738,6.737    C90.115,89.432,87.093,92.455,83.377,92.455z M83.377,81.979c-2.062,0-3.738,1.677-3.738,3.737c0,2.062,1.677,3.739,3.738,3.739    s3.738-1.677,3.738-3.739C87.115,83.655,85.438,81.979,83.377,81.979z"/></g><g><path class="st205" d="M99.95,77.402c-0.506,0-1-0.256-1.282-0.72c-0.431-0.708-0.206-1.631,0.502-2.062    c0.418-0.254,0.552-0.803,0.296-1.222c-0.254-0.418-0.799-0.554-1.225-0.297c-0.706,0.428-1.63,0.205-2.061-0.503    c-0.43-0.708-0.204-1.631,0.504-2.061c1.833-1.113,4.231-0.529,5.346,1.303c1.113,1.833,0.529,4.23-1.302,5.344    C100.485,77.332,100.216,77.402,99.95,77.402z"/></g><g><path class="st205" d="M38.984,48.064c-0.108,0-0.219-0.012-0.327-0.036c-0.501-0.112-0.91-0.472-1.084-0.956    c-0.92-2.554-1.526-5.196-1.802-7.854c-0.046-0.449,0.112-0.896,0.432-1.215c0.318-0.32,0.766-0.48,1.215-0.432    c2.657,0.275,5.3,0.881,7.855,1.802c0.483,0.174,0.844,0.583,0.956,1.084c0.112,0.501-0.04,1.025-0.403,1.388l-5.781,5.779    C39.761,47.91,39.378,48.064,38.984,48.064z M39.016,40.817c0.168,0.988,0.386,1.97,0.652,2.943l2.292-2.291    C40.986,41.202,40.004,40.984,39.016,40.817z"/></g><g><path class="st205" d="M38.984,46.564l5.781-5.779c-2.436-0.877-4.955-1.457-7.502-1.721    C37.527,41.611,38.107,44.131,38.984,46.564z"/></g><g><path class="st205" d="M30.029,55.191c-0.095,0-0.19-0.009-0.285-0.027c-0.489-0.095-0.899-0.426-1.095-0.885    c-1.081-2.537-1.769-5.17-2.044-7.827c-0.046-0.449,0.112-0.896,0.432-1.215c0.32-0.319,0.768-0.477,1.216-0.431    c2.679,0.278,5.313,0.967,7.83,2.046c0.458,0.196,0.788,0.606,0.882,1.095c0.095,0.489-0.061,0.992-0.412,1.344l-5.463,5.461    C30.806,55.036,30.423,55.191,30.029,55.191z M29.872,48.072c0.186,0.978,0.434,1.95,0.744,2.912l2.169-2.168    C31.827,48.505,30.854,48.257,29.872,48.072z"/></g><g><path class="st205" d="M28.098,46.298c0.262,2.528,0.92,5.02,1.932,7.394l5.463-5.461C33.119,47.213,30.627,46.561,28.098,46.298z    "/></g><g><path class="st205" d="M48.962,94.254c-0.549,0-1.077-0.303-1.341-0.826c-0.118-0.232-2.906-5.584-8.223-4.063    c-0.796,0.225-1.627-0.233-1.854-1.03c-0.228-0.796,0.233-1.627,1.03-1.854c6.18-1.766,10.374,2.893,11.729,5.603    c0.37,0.741,0.069,1.642-0.672,2.012C49.416,94.203,49.188,94.254,48.962,94.254z"/></g><g><path class="st205" d="M45.011,99.943c-0.549,0-1.077-0.303-1.341-0.826c-0.118-0.232-2.916-5.581-8.225-4.064    c-0.797,0.224-1.627-0.234-1.854-1.031c-0.228-0.796,0.234-1.626,1.03-1.854c6.19-1.765,10.377,2.894,11.73,5.604    c0.37,0.741,0.069,1.642-0.672,2.012C45.465,99.892,45.236,99.943,45.011,99.943z"/></g><g><g><g><path class="st205" d="M86.686,43.03c-0.16,0-0.323-0.026-0.483-0.081c-0.784-0.267-1.203-1.119-0.937-1.903l0.242-0.712      c0.267-0.785,1.116-1.207,1.903-0.937c0.784,0.267,1.203,1.119,0.937,1.903l-0.242,0.712      C87.894,42.637,87.311,43.03,86.686,43.03z"/></g><g><path class="st205" d="M83.047,53.696c-0.16,0-0.324-0.026-0.484-0.081c-0.784-0.267-1.203-1.12-0.936-1.904l1.426-4.18      c0.268-0.784,1.121-1.206,1.904-0.935c0.784,0.267,1.203,1.12,0.936,1.904l-1.426,4.18      C84.254,53.303,83.671,53.696,83.047,53.696z"/></g></g><g><g><g><path class="st205" d="M65.753,40.163c-0.552,0-1.083-0.306-1.345-0.834l-0.336-0.678c-0.368-0.742-0.064-1.642,0.678-2.01       c0.741-0.368,1.642-0.065,2.01,0.678l0.336,0.678c0.368,0.742,0.064,1.642-0.678,2.01       C66.204,40.112,65.977,40.163,65.753,40.163z"/></g><g><path class="st205" d="M70.722,50.278c-0.554,0-1.087-0.309-1.348-0.839l-1.949-3.971c-0.365-0.744-0.058-1.643,0.686-2.008       c0.745-0.365,1.643-0.058,2.008,0.686l1.949,3.971c0.365,0.744,0.058,1.643-0.686,2.008       C71.169,50.228,70.943,50.278,70.722,50.278z"/></g></g><g><g><path class="st205" d="M105.007,53.555c-0.555,0-1.088-0.309-1.348-0.84c-0.365-0.744-0.058-1.643,0.687-2.007l0.678-0.332       c0.747-0.363,1.644-0.056,2.007,0.687c0.365,0.744,0.058,1.643-0.687,2.007l-0.678,0.332       C105.453,53.506,105.229,53.555,105.007,53.555z"/></g><g><path class="st205" d="M94.896,58.524c-0.554,0-1.086-0.308-1.347-0.838c-0.366-0.744-0.06-1.643,0.684-2.008l3.963-1.949       c0.743-0.364,1.643-0.06,2.008,0.684c0.366,0.744,0.06,1.643-0.684,2.008l-3.963,1.949       C95.344,58.474,95.118,58.524,94.896,58.524z"/></g></g></g></g></g></svg>